<svg xmlns="http://www.w3.org/2000/svg" width="107.353" height="114.365" viewBox="0 0 107.353 114.365">
  <path id="Icon_ionic-md-beer" data-name="Icon ionic-md-beer" d="M94.247,29.82H90.413V28.288a14.641,14.641,0,0,0,3.833-9.7c0-9.011-6.876-16.338-15.333-16.338A14.742,14.742,0,0,0,68.756,6.36a16.439,16.439,0,0,0-21.011-.613,13.123,13.123,0,0,0-8.864-3.5A13.255,13.255,0,0,0,28.627,7.228,14.933,14.933,0,0,0,17.583,2.25C9.126,2.25,2.25,9.576,2.25,18.588a16.981,16.981,0,0,0,3.833,10.8V43.35c0,6.765,5.151,12.253,11.5,12.253v44.546c0,9.011,6.9,16.465,15.381,16.465H75.081c8.457,0,15.357-7.454,15.357-16.465v-11.1h3.833c11.979,0,15.333-8.348,15.333-17.359V47.179C109.579,38.168,105.507,29.82,94.247,29.82ZM78.914,43.094H29.082V29.386c.072-.1.168-.2.24-.306.287-.383.575-.766.839-1.174a11.95,11.95,0,0,0,1.1.868,12.9,12.9,0,0,0,11.979,1.71,17.073,17.073,0,0,0,14.614,8.6A16.835,16.835,0,0,0,71.008,32.6a18.3,18.3,0,0,0,3.138-5.846h4.768V43.094ZM17.583,26.782V45.928a3.945,3.945,0,0,1-3.833-4.084V25.685a7.983,7.983,0,0,1-3.665-5.361,7.948,7.948,0,0,1-.168-1.71,7.953,7.953,0,0,1,7.666-8.169c2.827,0,5.582,1.966,7.211,3.931s6.4,1.966,8.122,0c1.629-1.864,3.426-3.931,5.941-3.931a5.733,5.733,0,0,1,3.809,1.481,5.974,5.974,0,0,1,1.174,1.43c.264.46.479,1.072.743,1.481a3.27,3.27,0,0,0,2.683,1.4A3.379,3.379,0,0,0,49.9,14.963a4.978,4.978,0,0,0,.407-.587,10.7,10.7,0,0,1,1.605-1.736,9.136,9.136,0,0,1,12.506.587,5.664,5.664,0,0,0,3.162,1.3,6.889,6.889,0,0,0,1.965,0,6.165,6.165,0,0,0,3.929-1.685,7.416,7.416,0,0,1,5.414-2.4,7.953,7.953,0,0,1,7.666,8.169,6.869,6.869,0,0,1-.287,2.323,3.8,3.8,0,0,0-3.5-2.349H69.594a1.91,1.91,0,0,0-2.084,2.093,10.558,10.558,0,0,1-1.869,6.05,9.3,9.3,0,0,1-16.1-.97,10.18,10.18,0,0,1-.886-2.2c-.024-.153-.072-.281-.1-.408a3.6,3.6,0,0,0-3.378-2.6,3.473,3.473,0,0,0-2.444,1.021l-.024.026A5.656,5.656,0,0,1,40.7,22.8a5.505,5.505,0,0,1-1.845.306,6.184,6.184,0,0,1-4.5-2.2c-2.4-2.91-5.678-1.736-7.115-1.4s-2.923,2.987-2.923,2.987a8.4,8.4,0,0,1-.934,1.481A7.813,7.813,0,0,1,17.583,26.782Zm80.5,44.9c0,4.518-1.509,6.127-5.75,6.127H90.413V41.052H92.33c4.24,0,5.75,1.608,5.75,6.127Z" transform="translate(-2.25 -2.25)" fill="#ee594e"/>
</svg>
