<svg xmlns="http://www.w3.org/2000/svg" width="98.814" height="91" viewBox="0 0 98.814 91">
  <path id="Icon_ionic-ios-settings" data-name="Icon ionic-ios-settings" d="M95.156,49.988a11.78,11.78,0,0,1,8.157-10.922,44.463,44.463,0,0,0-6.1-13.528,13.836,13.836,0,0,1-5.172,1.019,13.313,13.313,0,0,1-8.981-3.412,11.038,11.038,0,0,1-2.625-13.03A52.708,52.708,0,0,0,65.77,4.5a12.74,12.74,0,0,1-11.863,7.51A12.74,12.74,0,0,1,42.044,4.5a52.873,52.873,0,0,0-14.693,5.615,11.007,11.007,0,0,1-2.625,13.03,13.565,13.565,0,0,1-14.153,2.393A45.426,45.426,0,0,0,4.5,39.09a11.768,11.768,0,0,1,8.157,10.922A11.79,11.79,0,0,1,4.526,60.934a44.462,44.462,0,0,0,6.1,13.528,13.779,13.779,0,0,1,5.147-1,13.313,13.313,0,0,1,8.981,3.412,11.041,11.041,0,0,1,2.625,13.007A53.183,53.183,0,0,0,42.07,95.5a13.1,13.1,0,0,1,23.674,0,52.873,52.873,0,0,0,14.693-5.615,11.047,11.047,0,0,1,2.625-13.007,13.22,13.22,0,0,1,8.981-3.412,13.681,13.681,0,0,1,5.147,1,44.721,44.721,0,0,0,6.1-13.528A11.831,11.831,0,0,1,95.156,49.988ZM54.138,68.918c-11.4,0-20.586-8.505-20.586-18.953s9.187-18.953,20.586-18.953,20.586,8.505,20.586,18.953S65.538,68.918,54.138,68.918Z" transform="translate(-4.5 -4.5)" fill="#0a0701"/>
</svg>
